name C:/MyDriveSym/Projects/mobilecap/Data\Session20210903_0002\mocap\ForceDataProcessed\walking2_forces.mot
datacolumns 19
datarows 29
range 0.60450000 0.61850000
endheader 
time	R_ground_force_vx	R_ground_force_vy	R_ground_force_vz	R_ground_force_px	R_ground_force_py	R_ground_force_pz	R_ground_torque_x	R_ground_torque_y	R_ground_torque_z	L_ground_force_vx	L_ground_force_vy	L_ground_force_vz	L_ground_force_px	L_ground_force_py	L_ground_force_pz	L_ground_torque_x	L_ground_torque_y	L_ground_torque_z	
          0.60450000	         40.95824800	        110.73869100	          0.97067000	          0.30353300	          0.00600000	         -0.12245400	          0.00000000	         -0.06481800	          0.00000000	       -102.73161600	        568.43653300	         32.34861200	          0.83096700	          0.00600000	         -0.24637200	          0.00000000	          0.27424500	          0.00000000	
          0.60500000	         40.47801700	        109.09823400	          1.00175600	          0.30379200	          0.00600000	         -0.12245500	          0.00000000	         -0.06434800	          0.00000000	       -102.84208200	        569.56329500	         32.56614200	          0.83114900	          0.00600000	         -0.24639900	          0.00000000	          0.26951300	          0.00000000	
          0.60550000	         39.99985500	        107.46954400	          1.03219800	          0.30405400	          0.00600000	         -0.12245700	          0.00000000	         -0.06387600	          0.00000000	       -102.94754800	        570.67331700	         32.78237500	          0.83133200	          0.00600000	         -0.24642600	          0.00000000	          0.26475500	          0.00000000	
          0.60600000	         39.52380100	        105.85266100	          1.06200500	          0.30431900	          0.00600000	         -0.12245800	          0.00000000	         -0.06340200	          0.00000000	       -103.04802100	        571.76658800	         32.99728500	          0.83151400	          0.00600000	         -0.24645400	          0.00000000	          0.25997100	          0.00000000	
          0.60650000	         39.04989100	        104.24762100	          1.09118200	          0.30458900	          0.00600000	         -0.12245900	          0.00000000	         -0.06292600	          0.00000000	       -103.14350700	        572.84309700	         33.21084600	          0.83169700	          0.00600000	         -0.24648000	          0.00000000	          0.25516100	          0.00000000	
          0.60700000	         38.57816300	        102.65446100	          1.11973800	          0.30486200	          0.00600000	         -0.12245900	          0.00000000	         -0.06245000	          0.00000000	       -103.23401200	        573.90283700	         33.42303100	          0.83187900	          0.00600000	         -0.24650700	          0.00000000	          0.25032500	          0.00000000	
          0.60750000	         38.10865200	        101.07321400	          1.14768100	          0.30514000	          0.00600000	         -0.12246000	          0.00000000	         -0.06197300	          0.00000000	       -103.31954600	        574.94580100	         33.63381500	          0.83206100	          0.00600000	         -0.24653400	          0.00000000	          0.24546500	          0.00000000	
          0.60800000	         37.64139300	         99.50391000	          1.17501800	          0.30542200	          0.00600000	         -0.12246000	          0.00000000	         -0.06149600	          0.00000000	       -103.40011700	        575.97198400	         33.84317200	          0.83224300	          0.00600000	         -0.24656000	          0.00000000	          0.24058100	          0.00000000	
          0.60850000	         37.17642100	         97.94658000	          1.20175700	          0.30570700	          0.00600000	         -0.12245900	          0.00000000	         -0.06101800	          0.00000000	       -103.47573300	        576.98138200	         34.05107500	          0.83242400	          0.00600000	         -0.24658600	          0.00000000	          0.23567300	          0.00000000	
          0.60900000	         36.71376900	         96.40125000	          1.22790400	          0.30599800	          0.00600000	         -0.12245900	          0.00000000	         -0.06054100	          0.00000000	       -103.54640500	        577.97399600	         34.25750100	          0.83260600	          0.00600000	         -0.24661200	          0.00000000	          0.23074300	          0.00000000	
          0.60950000	         36.25346900	         94.86794600	          1.25346700	          0.30629300	          0.00600000	         -0.12245800	          0.00000000	         -0.06006400	          0.00000000	       -103.61214200	        578.94982400	         34.46242400	          0.83278700	          0.00600000	         -0.24663800	          0.00000000	          0.22579000	          0.00000000	
          0.61000000	         35.79555400	         93.34669100	          1.27845400	          0.30659200	          0.00600000	         -0.12245600	          0.00000000	         -0.05958800	          0.00000000	       -103.67295700	        579.90887000	         34.66581900	          0.83296800	          0.00600000	         -0.24666300	          0.00000000	          0.22081600	          0.00000000	
          0.61050000	         35.34005300	         91.83750600	          1.30287100	          0.30689700	          0.00600000	         -0.12245400	          0.00000000	         -0.05911300	          0.00000000	       -103.72886000	        580.85113600	         34.86766100	          0.83315000	          0.00600000	         -0.24668800	          0.00000000	          0.21582000	          0.00000000	
          0.61100000	         34.88699700	         90.34041200	          1.32672600	          0.30720600	          0.00600000	         -0.12245200	          0.00000000	         -0.05864000	          0.00000000	       -103.77986500	        581.77662900	         35.06792700	          0.83333100	          0.00600000	         -0.24671300	          0.00000000	          0.21080500	          0.00000000	
          0.61150000	         34.43641500	         88.85542400	          1.35002600	          0.30752100	          0.00600000	         -0.12245000	          0.00000000	         -0.05816900	          0.00000000	       -103.82598500	        582.68535400	         35.26659200	          0.83351100	          0.00600000	         -0.24673800	          0.00000000	          0.20576900	          0.00000000	
          0.61200000	         33.98833500	         87.38256000	          1.37277800	          0.30784100	          0.00600000	         -0.12244700	          0.00000000	         -0.05770000	          0.00000000	       -103.86723300	        583.57732200	         35.46363300	          0.83369200	          0.00600000	         -0.24676300	          0.00000000	          0.20071400	          0.00000000	
          0.61250000	         33.54278400	         85.92183100	          1.39498800	          0.30816700	          0.00600000	         -0.12244300	          0.00000000	         -0.05723400	          0.00000000	       -103.90362400	        584.45254200	         35.65902600	          0.83387300	          0.00600000	         -0.24678700	          0.00000000	          0.19564100	          0.00000000	
          0.61300000	         33.09978900	         84.47325200	          1.41666300	          0.30849900	          0.00600000	         -0.12244000	          0.00000000	         -0.05677200	          0.00000000	       -103.93517300	        585.31102500	         35.85274800	          0.83405400	          0.00600000	         -0.24681100	          0.00000000	          0.19055100	          0.00000000	
          0.61350000	         32.65937500	         83.03683000	          1.43781100	          0.30883600	          0.00600000	         -0.12243500	          0.00000000	         -0.05631200	          0.00000000	       -103.96189600	        586.15278500	         36.04477700	          0.83423400	          0.00600000	         -0.24683500	          0.00000000	          0.18544300	          0.00000000	
          0.61400000	         32.22156700	         81.61257500	          1.45843800	          0.30918000	          0.00600000	         -0.12243100	          0.00000000	         -0.05585700	          0.00000000	       -103.98380900	        586.97783700	         36.23509000	          0.83441500	          0.00600000	         -0.24685900	          0.00000000	          0.18031900	          0.00000000	
          0.61450000	         31.78639000	         80.20049300	          1.47855100	          0.30953000	          0.00600000	         -0.12242500	          0.00000000	         -0.05540700	          0.00000000	       -104.00093000	        587.78619800	         36.42366500	          0.83459500	          0.00600000	         -0.24688300	          0.00000000	          0.17517900	          0.00000000	
          0.61500000	         31.35386500	         78.80058800	          1.49815500	          0.30988600	          0.00600000	         -0.12242000	          0.00000000	         -0.05496100	          0.00000000	       -104.01327600	        588.57788400	         36.61048000	          0.83477500	          0.00600000	         -0.24690600	          0.00000000	          0.17002500	          0.00000000	
          0.61550000	         30.92401500	         77.41286400	          1.51725800	          0.31025000	          0.00600000	         -0.12241400	          0.00000000	         -0.05452100	          0.00000000	       -104.02086700	        589.35291600	         36.79551500	          0.83495600	          0.00600000	         -0.24692900	          0.00000000	          0.16485700	          0.00000000	
          0.61600000	         30.49686100	         76.03732000	          1.53586600	          0.31062000	          0.00600000	         -0.12240700	          0.00000000	         -0.05408700	          0.00000000	       -104.02372000	        590.11131400	         36.97874800	          0.83513600	          0.00600000	         -0.24695200	          0.00000000	          0.15967500	          0.00000000	
          0.61650000	         30.07242400	         74.67395800	          1.55398600	          0.31099800	          0.00600000	         -0.12240000	          0.00000000	         -0.05365900	          0.00000000	       -104.02185700	        590.85310100	         37.16015900	          0.83531600	          0.00600000	         -0.24697400	          0.00000000	          0.15448100	          0.00000000	
          0.61700000	         29.65072200	         73.32277400	          1.57162300	          0.31138400	          0.00600000	         -0.12239200	          0.00000000	         -0.05323900	          0.00000000	       -104.01529700	        591.57829900	         37.33972800	          0.83549600	          0.00600000	         -0.24699700	          0.00000000	          0.14927500	          0.00000000	
          0.61750000	         29.23177500	         71.98376400	          1.58878300	          0.31177800	          0.00600000	         -0.12238300	          0.00000000	         -0.05282600	          0.00000000	       -104.00406200	        592.28693400	         37.51743400	          0.83567600	          0.00600000	         -0.24701900	          0.00000000	          0.14405800	          0.00000000	
          0.61800000	         28.81560000	         70.65692300	          1.60547300	          0.31218000	          0.00600000	         -0.12237400	          0.00000000	         -0.05242100	          0.00000000	       -103.98817400	        592.97903200	         37.69325900	          0.83585600	          0.00600000	         -0.24704100	          0.00000000	          0.13883100	          0.00000000	
          0.61850000	         28.40221300	         69.34224400	          1.62169800	          0.31259000	          0.00600000	         -0.12236500	          0.00000000	         -0.05202600	          0.00000000	       -103.96765400	        593.65462100	         37.86718300	          0.83603600	          0.00600000	         -0.24706300	          0.00000000	          0.13359400	          0.00000000	
